<mxfile host="app.diagrams.net" agent="Mozilla/5.0 (Macintosh; Intel Mac OS X 10_15_7) AppleWebKit/605.1.15 (KHTML, like Gecko) Version/17.6 Safari/605.1.15" version="24.7.17">
  <diagram name="Hug Reminder Feature" id="2U5xHgDM5TuniUMEtGMu">
    <mxGraphModel dx="4285" dy="2276" grid="1" gridSize="10" guides="1" tooltips="1" connect="1" arrows="1" fold="1" page="1" pageScale="1" pageWidth="850" pageHeight="1100" math="0" shadow="0">
      <root>
        <mxCell id="0" />
        <mxCell id="1" parent="0" />
        <mxCell id="d4TWSAMVHj7KLlbmg61B-78" value="" style="edgeStyle=orthogonalEdgeStyle;rounded=0;orthogonalLoop=1;jettySize=auto;html=1;" edge="1" parent="1" source="d4TWSAMVHj7KLlbmg61B-62" target="d4TWSAMVHj7KLlbmg61B-43">
          <mxGeometry relative="1" as="geometry">
            <Array as="points">
              <mxPoint x="-570" y="-2" />
              <mxPoint x="-570" y="200" />
            </Array>
          </mxGeometry>
        </mxCell>
        <mxCell id="d4TWSAMVHj7KLlbmg61B-62" value="AWS Step Functions workflow" style="points=[[0,0],[0.25,0],[0.5,0],[0.75,0],[1,0],[1,0.25],[1,0.5],[1,0.75],[1,1],[0.75,1],[0.5,1],[0.25,1],[0,1],[0,0.75],[0,0.5],[0,0.25]];outlineConnect=0;gradientColor=none;html=1;whiteSpace=wrap;fontSize=12;fontStyle=0;container=1;pointerEvents=0;collapsible=0;recursiveResize=0;shape=mxgraph.aws4.group;grIcon=mxgraph.aws4.group_aws_step_functions_workflow;strokeColor=#CD2264;fillColor=none;verticalAlign=top;align=left;spacingLeft=30;fontColor=#CD2264;dashed=0;" vertex="1" parent="1">
          <mxGeometry x="-1330" y="-82" width="702" height="160" as="geometry" />
        </mxCell>
        <mxCell id="d4TWSAMVHj7KLlbmg61B-65" value="" style="edgeStyle=orthogonalEdgeStyle;rounded=0;orthogonalLoop=1;jettySize=auto;html=1;" edge="1" parent="d4TWSAMVHj7KLlbmg61B-62" source="d4TWSAMVHj7KLlbmg61B-63" target="d4TWSAMVHj7KLlbmg61B-52">
          <mxGeometry relative="1" as="geometry" />
        </mxCell>
        <mxCell id="d4TWSAMVHj7KLlbmg61B-63" value="&lt;span style=&quot;caret-color: rgb(0, 0, 0); color: rgb(0, 0, 0); background-color: rgb(254, 116, 255);&quot;&gt;Query DB for contacts by TZ &amp;amp; Filter by preferred reminder time - with pagination&lt;/span&gt;" style="strokeWidth=1;shadow=0;dashed=0;align=center;html=1;shape=mxgraph.mockup.text.textBox;fontColor=#666666;align=left;fontSize=17;spacingLeft=4;spacingTop=-3;whiteSpace=wrap;strokeColor=#666666;mainText=" vertex="1" parent="d4TWSAMVHj7KLlbmg61B-62">
          <mxGeometry x="32" y="34" width="197.14" height="92" as="geometry" />
        </mxCell>
        <mxCell id="d4TWSAMVHj7KLlbmg61B-51" value="" style="group" vertex="1" connectable="0" parent="d4TWSAMVHj7KLlbmg61B-62">
          <mxGeometry x="295.75" y="41" width="110.5" height="78" as="geometry" />
        </mxCell>
        <mxCell id="d4TWSAMVHj7KLlbmg61B-52" value="DynamoDB" style="sketch=0;points=[[0,0,0],[0.25,0,0],[0.5,0,0],[0.75,0,0],[1,0,0],[0,1,0],[0.25,1,0],[0.5,1,0],[0.75,1,0],[1,1,0],[0,0.25,0],[0,0.5,0],[0,0.75,0],[1,0.25,0],[1,0.5,0],[1,0.75,0]];outlineConnect=0;fontColor=#232F3E;fillColor=#C925D1;strokeColor=#ffffff;dashed=0;verticalLabelPosition=bottom;verticalAlign=top;align=center;html=1;fontSize=12;fontStyle=0;aspect=fixed;shape=mxgraph.aws4.resourceIcon;resIcon=mxgraph.aws4.dynamodb;" vertex="1" parent="d4TWSAMVHj7KLlbmg61B-51">
          <mxGeometry width="78" height="78" as="geometry" />
        </mxCell>
        <mxCell id="d4TWSAMVHj7KLlbmg61B-53" value="KMS" style="sketch=0;outlineConnect=0;fontColor=#232F3E;gradientColor=none;fillColor=#DD344C;strokeColor=none;dashed=0;verticalLabelPosition=bottom;verticalAlign=top;align=center;html=1;fontSize=12;fontStyle=0;aspect=fixed;pointerEvents=1;shape=mxgraph.aws4.data_encryption_key;" vertex="1" parent="d4TWSAMVHj7KLlbmg61B-51">
          <mxGeometry x="84.5" y="45.29000000000002" width="26" height="32.71" as="geometry" />
        </mxCell>
        <mxCell id="d4TWSAMVHj7KLlbmg61B-66" value="&lt;font color=&quot;#000000&quot;&gt;&lt;span style=&quot;caret-color: rgb(0, 0, 0); background-color: rgb(254, 116, 255);&quot;&gt;Send batch messages to SQS queue&lt;/span&gt;&lt;/font&gt;" style="strokeWidth=1;shadow=0;dashed=0;align=center;html=1;shape=mxgraph.mockup.text.textBox;fontColor=#666666;align=left;fontSize=17;spacingLeft=4;spacingTop=-3;whiteSpace=wrap;strokeColor=#666666;mainText=" vertex="1" parent="d4TWSAMVHj7KLlbmg61B-62">
          <mxGeometry x="472" y="34" width="197.14" height="92" as="geometry" />
        </mxCell>
        <mxCell id="d4TWSAMVHj7KLlbmg61B-67" value="" style="edgeStyle=orthogonalEdgeStyle;rounded=0;orthogonalLoop=1;jettySize=auto;html=1;" edge="1" parent="d4TWSAMVHj7KLlbmg61B-62" source="d4TWSAMVHj7KLlbmg61B-52" target="d4TWSAMVHj7KLlbmg61B-66">
          <mxGeometry relative="1" as="geometry" />
        </mxCell>
        <mxCell id="d4TWSAMVHj7KLlbmg61B-50" value="" style="edgeStyle=orthogonalEdgeStyle;rounded=0;orthogonalLoop=1;jettySize=auto;html=1;" edge="1" parent="1" source="d4TWSAMVHj7KLlbmg61B-34" target="d4TWSAMVHj7KLlbmg61B-36">
          <mxGeometry relative="1" as="geometry" />
        </mxCell>
        <mxCell id="d4TWSAMVHj7KLlbmg61B-34" value="Pinpoint" style="sketch=0;points=[[0,0,0],[0.25,0,0],[0.5,0,0],[0.75,0,0],[1,0,0],[0,1,0],[0.25,1,0],[0.5,1,0],[0.75,1,0],[1,1,0],[0,0.25,0],[0,0.5,0],[0,0.75,0],[1,0.25,0],[1,0.5,0],[1,0.75,0]];outlineConnect=0;fontColor=#232F3E;fillColor=#DD344C;strokeColor=#ffffff;dashed=0;verticalLabelPosition=bottom;verticalAlign=top;align=center;html=1;fontSize=12;fontStyle=0;aspect=fixed;shape=mxgraph.aws4.resourceIcon;resIcon=mxgraph.aws4.pinpoint;" vertex="1" parent="1">
          <mxGeometry x="-200" y="158.5" width="80" height="80" as="geometry" />
        </mxCell>
        <mxCell id="d4TWSAMVHj7KLlbmg61B-36" value="WhatsApp" style="dashed=0;outlineConnect=0;html=1;align=center;labelPosition=center;verticalLabelPosition=bottom;verticalAlign=top;shape=mxgraph.webicons.whatsapp;fillColor=#4FE238;gradientColor=#138709" vertex="1" parent="1">
          <mxGeometry x="-40" y="158" width="82" height="82" as="geometry" />
        </mxCell>
        <mxCell id="d4TWSAMVHj7KLlbmg61B-38" value="Secrets Manager" style="sketch=0;points=[[0,0,0],[0.25,0,0],[0.5,0,0],[0.75,0,0],[1,0,0],[0,1,0],[0.25,1,0],[0.5,1,0],[0.75,1,0],[1,1,0],[0,0.25,0],[0,0.5,0],[0,0.75,0],[1,0.25,0],[1,0.5,0],[1,0.75,0]];outlineConnect=0;fontColor=#232F3E;fillColor=#DD344C;strokeColor=#ffffff;dashed=0;verticalLabelPosition=bottom;verticalAlign=top;align=center;html=1;fontSize=12;fontStyle=0;aspect=fixed;shape=mxgraph.aws4.resourceIcon;resIcon=mxgraph.aws4.secrets_manager;" vertex="1" parent="1">
          <mxGeometry x="-360" width="78" height="78" as="geometry" />
        </mxCell>
        <mxCell id="d4TWSAMVHj7KLlbmg61B-45" value="" style="edgeStyle=orthogonalEdgeStyle;rounded=0;orthogonalLoop=1;jettySize=auto;html=1;" edge="1" parent="1" source="d4TWSAMVHj7KLlbmg61B-43" target="d4TWSAMVHj7KLlbmg61B-44">
          <mxGeometry relative="1" as="geometry" />
        </mxCell>
        <mxCell id="d4TWSAMVHj7KLlbmg61B-43" value="SQS" style="sketch=0;points=[[0,0,0],[0.25,0,0],[0.5,0,0],[0.75,0,0],[1,0,0],[0,1,0],[0.25,1,0],[0.5,1,0],[0.75,1,0],[1,1,0],[0,0.25,0],[0,0.5,0],[0,0.75,0],[1,0.25,0],[1,0.5,0],[1,0.75,0]];outlineConnect=0;fontColor=#232F3E;fillColor=#E7157B;strokeColor=#ffffff;dashed=0;verticalLabelPosition=bottom;verticalAlign=top;align=center;html=1;fontSize=12;fontStyle=0;aspect=fixed;shape=mxgraph.aws4.resourceIcon;resIcon=mxgraph.aws4.sqs;" vertex="1" parent="1">
          <mxGeometry x="-520" y="161" width="78" height="78" as="geometry" />
        </mxCell>
        <mxCell id="d4TWSAMVHj7KLlbmg61B-46" value="" style="edgeStyle=orthogonalEdgeStyle;rounded=0;orthogonalLoop=1;jettySize=auto;html=1;" edge="1" parent="1" source="d4TWSAMVHj7KLlbmg61B-44" target="d4TWSAMVHj7KLlbmg61B-38">
          <mxGeometry relative="1" as="geometry" />
        </mxCell>
        <mxCell id="d4TWSAMVHj7KLlbmg61B-49" value="" style="edgeStyle=orthogonalEdgeStyle;rounded=0;orthogonalLoop=1;jettySize=auto;html=1;" edge="1" parent="1" source="d4TWSAMVHj7KLlbmg61B-44" target="d4TWSAMVHj7KLlbmg61B-34">
          <mxGeometry relative="1" as="geometry" />
        </mxCell>
        <mxCell id="d4TWSAMVHj7KLlbmg61B-44" value="send_message" style="sketch=0;points=[[0,0,0],[0.25,0,0],[0.5,0,0],[0.75,0,0],[1,0,0],[0,1,0],[0.25,1,0],[0.5,1,0],[0.75,1,0],[1,1,0],[0,0.25,0],[0,0.5,0],[0,0.75,0],[1,0.25,0],[1,0.5,0],[1,0.75,0]];outlineConnect=0;fontColor=#232F3E;fillColor=#ED7100;strokeColor=#ffffff;dashed=0;verticalLabelPosition=bottom;verticalAlign=top;align=center;html=1;fontSize=12;fontStyle=0;aspect=fixed;shape=mxgraph.aws4.resourceIcon;resIcon=mxgraph.aws4.lambda;" vertex="1" parent="1">
          <mxGeometry x="-360" y="160.5" width="78" height="78" as="geometry" />
        </mxCell>
        <mxCell id="d4TWSAMVHj7KLlbmg61B-95" style="edgeStyle=orthogonalEdgeStyle;rounded=0;orthogonalLoop=1;jettySize=auto;html=1;entryX=0;entryY=0.5;entryDx=0;entryDy=0;" edge="1" parent="1" source="d4TWSAMVHj7KLlbmg61B-54" target="d4TWSAMVHj7KLlbmg61B-62">
          <mxGeometry relative="1" as="geometry" />
        </mxCell>
        <mxCell id="d4TWSAMVHj7KLlbmg61B-96" style="edgeStyle=orthogonalEdgeStyle;rounded=0;orthogonalLoop=1;jettySize=auto;html=1;entryX=0;entryY=0.5;entryDx=0;entryDy=0;" edge="1" parent="1" source="d4TWSAMVHj7KLlbmg61B-54" target="d4TWSAMVHj7KLlbmg61B-80">
          <mxGeometry relative="1" as="geometry" />
        </mxCell>
        <mxCell id="d4TWSAMVHj7KLlbmg61B-97" style="edgeStyle=orthogonalEdgeStyle;rounded=0;orthogonalLoop=1;jettySize=auto;html=1;entryX=0;entryY=0.5;entryDx=0;entryDy=0;" edge="1" parent="1" source="d4TWSAMVHj7KLlbmg61B-54" target="d4TWSAMVHj7KLlbmg61B-69">
          <mxGeometry relative="1" as="geometry" />
        </mxCell>
        <mxCell id="d4TWSAMVHj7KLlbmg61B-54" value="Step Functions" style="sketch=0;points=[[0,0,0],[0.25,0,0],[0.5,0,0],[0.75,0,0],[1,0,0],[0,1,0],[0.25,1,0],[0.5,1,0],[0.75,1,0],[1,1,0],[0,0.25,0],[0,0.5,0],[0,0.75,0],[1,0.25,0],[1,0.5,0],[1,0.75,0]];outlineConnect=0;fontColor=#232F3E;fillColor=#E7157B;strokeColor=#ffffff;dashed=0;verticalLabelPosition=bottom;verticalAlign=top;align=center;html=1;fontSize=12;fontStyle=0;aspect=fixed;shape=mxgraph.aws4.resourceIcon;resIcon=mxgraph.aws4.step_functions;" vertex="1" parent="1">
          <mxGeometry x="-1530" y="161" width="78" height="78" as="geometry" />
        </mxCell>
        <mxCell id="d4TWSAMVHj7KLlbmg61B-89" style="edgeStyle=orthogonalEdgeStyle;rounded=0;orthogonalLoop=1;jettySize=auto;html=1;" edge="1" parent="1" source="d4TWSAMVHj7KLlbmg61B-69" target="d4TWSAMVHj7KLlbmg61B-43">
          <mxGeometry relative="1" as="geometry">
            <Array as="points">
              <mxPoint x="-570" y="410" />
              <mxPoint x="-570" y="200" />
            </Array>
          </mxGeometry>
        </mxCell>
        <mxCell id="d4TWSAMVHj7KLlbmg61B-69" value="AWS Step Functions workflow" style="points=[[0,0],[0.25,0],[0.5,0],[0.75,0],[1,0],[1,0.25],[1,0.5],[1,0.75],[1,1],[0.75,1],[0.5,1],[0.25,1],[0,1],[0,0.75],[0,0.5],[0,0.25]];outlineConnect=0;gradientColor=none;html=1;whiteSpace=wrap;fontSize=12;fontStyle=0;container=1;pointerEvents=0;collapsible=0;recursiveResize=0;shape=mxgraph.aws4.group;grIcon=mxgraph.aws4.group_aws_step_functions_workflow;strokeColor=#CD2264;fillColor=none;verticalAlign=top;align=left;spacingLeft=30;fontColor=#CD2264;dashed=0;" vertex="1" parent="1">
          <mxGeometry x="-1330" y="330" width="702" height="160" as="geometry" />
        </mxCell>
        <mxCell id="d4TWSAMVHj7KLlbmg61B-70" value="" style="edgeStyle=orthogonalEdgeStyle;rounded=0;orthogonalLoop=1;jettySize=auto;html=1;" edge="1" parent="d4TWSAMVHj7KLlbmg61B-69" source="d4TWSAMVHj7KLlbmg61B-71" target="d4TWSAMVHj7KLlbmg61B-73">
          <mxGeometry relative="1" as="geometry" />
        </mxCell>
        <mxCell id="d4TWSAMVHj7KLlbmg61B-71" value="&lt;span style=&quot;caret-color: rgb(0, 0, 0); color: rgb(0, 0, 0); background-color: rgb(254, 116, 255);&quot;&gt;Query DB for contacts by TZ &amp;amp; Filter by preferred reminder time - with pagination&lt;/span&gt;" style="strokeWidth=1;shadow=0;dashed=0;align=center;html=1;shape=mxgraph.mockup.text.textBox;fontColor=#666666;align=left;fontSize=17;spacingLeft=4;spacingTop=-3;whiteSpace=wrap;strokeColor=#666666;mainText=" vertex="1" parent="d4TWSAMVHj7KLlbmg61B-69">
          <mxGeometry x="32" y="34" width="197.14" height="92" as="geometry" />
        </mxCell>
        <mxCell id="d4TWSAMVHj7KLlbmg61B-72" value="" style="group" vertex="1" connectable="0" parent="d4TWSAMVHj7KLlbmg61B-69">
          <mxGeometry x="295.75" y="41" width="110.5" height="78" as="geometry" />
        </mxCell>
        <mxCell id="d4TWSAMVHj7KLlbmg61B-73" value="DynamoDB" style="sketch=0;points=[[0,0,0],[0.25,0,0],[0.5,0,0],[0.75,0,0],[1,0,0],[0,1,0],[0.25,1,0],[0.5,1,0],[0.75,1,0],[1,1,0],[0,0.25,0],[0,0.5,0],[0,0.75,0],[1,0.25,0],[1,0.5,0],[1,0.75,0]];outlineConnect=0;fontColor=#232F3E;fillColor=#C925D1;strokeColor=#ffffff;dashed=0;verticalLabelPosition=bottom;verticalAlign=top;align=center;html=1;fontSize=12;fontStyle=0;aspect=fixed;shape=mxgraph.aws4.resourceIcon;resIcon=mxgraph.aws4.dynamodb;" vertex="1" parent="d4TWSAMVHj7KLlbmg61B-72">
          <mxGeometry width="78" height="78" as="geometry" />
        </mxCell>
        <mxCell id="d4TWSAMVHj7KLlbmg61B-74" value="KMS" style="sketch=0;outlineConnect=0;fontColor=#232F3E;gradientColor=none;fillColor=#DD344C;strokeColor=none;dashed=0;verticalLabelPosition=bottom;verticalAlign=top;align=center;html=1;fontSize=12;fontStyle=0;aspect=fixed;pointerEvents=1;shape=mxgraph.aws4.data_encryption_key;" vertex="1" parent="d4TWSAMVHj7KLlbmg61B-72">
          <mxGeometry x="84.5" y="45.29000000000002" width="26" height="32.71" as="geometry" />
        </mxCell>
        <mxCell id="d4TWSAMVHj7KLlbmg61B-75" value="&lt;font color=&quot;#000000&quot;&gt;&lt;span style=&quot;caret-color: rgb(0, 0, 0); background-color: rgb(254, 116, 255);&quot;&gt;Send batch messages to SQS queue&lt;/span&gt;&lt;/font&gt;" style="strokeWidth=1;shadow=0;dashed=0;align=center;html=1;shape=mxgraph.mockup.text.textBox;fontColor=#666666;align=left;fontSize=17;spacingLeft=4;spacingTop=-3;whiteSpace=wrap;strokeColor=#666666;mainText=" vertex="1" parent="d4TWSAMVHj7KLlbmg61B-69">
          <mxGeometry x="472" y="34" width="197.14" height="92" as="geometry" />
        </mxCell>
        <mxCell id="d4TWSAMVHj7KLlbmg61B-76" value="" style="edgeStyle=orthogonalEdgeStyle;rounded=0;orthogonalLoop=1;jettySize=auto;html=1;" edge="1" parent="d4TWSAMVHj7KLlbmg61B-69" source="d4TWSAMVHj7KLlbmg61B-73" target="d4TWSAMVHj7KLlbmg61B-75">
          <mxGeometry relative="1" as="geometry" />
        </mxCell>
        <mxCell id="d4TWSAMVHj7KLlbmg61B-88" value="" style="edgeStyle=orthogonalEdgeStyle;rounded=0;orthogonalLoop=1;jettySize=auto;html=1;" edge="1" parent="1" source="d4TWSAMVHj7KLlbmg61B-80" target="d4TWSAMVHj7KLlbmg61B-43">
          <mxGeometry relative="1" as="geometry" />
        </mxCell>
        <mxCell id="d4TWSAMVHj7KLlbmg61B-80" value="AWS Step Functions workflow" style="points=[[0,0],[0.25,0],[0.5,0],[0.75,0],[1,0],[1,0.25],[1,0.5],[1,0.75],[1,1],[0.75,1],[0.5,1],[0.25,1],[0,1],[0,0.75],[0,0.5],[0,0.25]];outlineConnect=0;gradientColor=none;html=1;whiteSpace=wrap;fontSize=12;fontStyle=0;container=1;pointerEvents=0;collapsible=0;recursiveResize=0;shape=mxgraph.aws4.group;grIcon=mxgraph.aws4.group_aws_step_functions_workflow;strokeColor=#CD2264;fillColor=none;verticalAlign=top;align=left;spacingLeft=30;fontColor=#CD2264;dashed=0;" vertex="1" parent="1">
          <mxGeometry x="-1330" y="120" width="702" height="160" as="geometry" />
        </mxCell>
        <mxCell id="d4TWSAMVHj7KLlbmg61B-81" value="" style="edgeStyle=orthogonalEdgeStyle;rounded=0;orthogonalLoop=1;jettySize=auto;html=1;" edge="1" parent="d4TWSAMVHj7KLlbmg61B-80" source="d4TWSAMVHj7KLlbmg61B-82" target="d4TWSAMVHj7KLlbmg61B-84">
          <mxGeometry relative="1" as="geometry" />
        </mxCell>
        <mxCell id="d4TWSAMVHj7KLlbmg61B-82" value="&lt;span style=&quot;caret-color: rgb(0, 0, 0); color: rgb(0, 0, 0); background-color: rgb(254, 116, 255);&quot;&gt;Query DB for contacts by TZ &amp;amp; Filter by preferred reminder time - with pagination&lt;/span&gt;" style="strokeWidth=1;shadow=0;dashed=0;align=center;html=1;shape=mxgraph.mockup.text.textBox;fontColor=#666666;align=left;fontSize=17;spacingLeft=4;spacingTop=-3;whiteSpace=wrap;strokeColor=#666666;mainText=" vertex="1" parent="d4TWSAMVHj7KLlbmg61B-80">
          <mxGeometry x="32" y="34" width="197.14" height="92" as="geometry" />
        </mxCell>
        <mxCell id="d4TWSAMVHj7KLlbmg61B-83" value="" style="group" vertex="1" connectable="0" parent="d4TWSAMVHj7KLlbmg61B-80">
          <mxGeometry x="295.75" y="41" width="110.5" height="78" as="geometry" />
        </mxCell>
        <mxCell id="d4TWSAMVHj7KLlbmg61B-84" value="DynamoDB" style="sketch=0;points=[[0,0,0],[0.25,0,0],[0.5,0,0],[0.75,0,0],[1,0,0],[0,1,0],[0.25,1,0],[0.5,1,0],[0.75,1,0],[1,1,0],[0,0.25,0],[0,0.5,0],[0,0.75,0],[1,0.25,0],[1,0.5,0],[1,0.75,0]];outlineConnect=0;fontColor=#232F3E;fillColor=#C925D1;strokeColor=#ffffff;dashed=0;verticalLabelPosition=bottom;verticalAlign=top;align=center;html=1;fontSize=12;fontStyle=0;aspect=fixed;shape=mxgraph.aws4.resourceIcon;resIcon=mxgraph.aws4.dynamodb;" vertex="1" parent="d4TWSAMVHj7KLlbmg61B-83">
          <mxGeometry width="78" height="78" as="geometry" />
        </mxCell>
        <mxCell id="d4TWSAMVHj7KLlbmg61B-85" value="KMS" style="sketch=0;outlineConnect=0;fontColor=#232F3E;gradientColor=none;fillColor=#DD344C;strokeColor=none;dashed=0;verticalLabelPosition=bottom;verticalAlign=top;align=center;html=1;fontSize=12;fontStyle=0;aspect=fixed;pointerEvents=1;shape=mxgraph.aws4.data_encryption_key;" vertex="1" parent="d4TWSAMVHj7KLlbmg61B-83">
          <mxGeometry x="84.5" y="45.29000000000002" width="26" height="32.71" as="geometry" />
        </mxCell>
        <mxCell id="d4TWSAMVHj7KLlbmg61B-86" value="&lt;font color=&quot;#000000&quot;&gt;&lt;span style=&quot;caret-color: rgb(0, 0, 0); background-color: rgb(254, 116, 255);&quot;&gt;Send batch messages to SQS queue&lt;/span&gt;&lt;/font&gt;" style="strokeWidth=1;shadow=0;dashed=0;align=center;html=1;shape=mxgraph.mockup.text.textBox;fontColor=#666666;align=left;fontSize=17;spacingLeft=4;spacingTop=-3;whiteSpace=wrap;strokeColor=#666666;mainText=" vertex="1" parent="d4TWSAMVHj7KLlbmg61B-80">
          <mxGeometry x="472" y="34" width="197.14" height="92" as="geometry" />
        </mxCell>
        <mxCell id="d4TWSAMVHj7KLlbmg61B-87" value="" style="edgeStyle=orthogonalEdgeStyle;rounded=0;orthogonalLoop=1;jettySize=auto;html=1;" edge="1" parent="d4TWSAMVHj7KLlbmg61B-80" source="d4TWSAMVHj7KLlbmg61B-84" target="d4TWSAMVHj7KLlbmg61B-86">
          <mxGeometry relative="1" as="geometry" />
        </mxCell>
        <mxCell id="d4TWSAMVHj7KLlbmg61B-101" style="edgeStyle=orthogonalEdgeStyle;rounded=0;orthogonalLoop=1;jettySize=auto;html=1;" edge="1" parent="1" source="d4TWSAMVHj7KLlbmg61B-100" target="d4TWSAMVHj7KLlbmg61B-54">
          <mxGeometry relative="1" as="geometry" />
        </mxCell>
        <mxCell id="d4TWSAMVHj7KLlbmg61B-100" value="Recurring scheduler" style="sketch=0;outlineConnect=0;fontColor=#232F3E;gradientColor=none;fillColor=#E7157B;strokeColor=none;dashed=0;verticalLabelPosition=bottom;verticalAlign=top;align=center;html=1;fontSize=12;fontStyle=0;aspect=fixed;pointerEvents=1;shape=mxgraph.aws4.eventbridge_scheduler;" vertex="1" parent="1">
          <mxGeometry x="-1710" y="162" width="78" height="78" as="geometry" />
        </mxCell>
      </root>
    </mxGraphModel>
  </diagram>
</mxfile>
